<?xml version="1.0" encoding="utf-8"?>
<!-- Generator: Adobe Illustrator 22.0.1, SVG Export Plug-In . SVG Version: 6.00 Build 0)  -->
<svg version="1.1" id="Layer_3" xmlns="http://www.w3.org/2000/svg" xmlns:xlink="http://www.w3.org/1999/xlink" x="0px" y="0px"
	 viewBox="0 0 70.7 34.5" style="enable-background:new 0 0 70.7 34.5;" xml:space="preserve">
<style type="text/css">
	.st0{fill:#FFFFFF;}
	.st1{fill:#FFF200;stroke:#FFF200;stroke-width:0.3;stroke-miterlimit:10;}
</style>
<g>
	<path class="st0" d="M10.2,16.2v2.3c0,0.9-0.1,1.6-0.3,2.3c-0.2,0.7-0.5,1.3-0.9,1.7c-0.4,0.5-0.9,0.8-1.6,1.1S6,24.1,5.1,24.1
		c-1,0-1.8-0.1-2.4-0.4s-1.2-0.6-1.6-1.1c-0.4-0.5-0.7-1.1-0.8-1.8C0.1,20.1,0,19.3,0,18.4V6.2c0-0.9,0.1-1.7,0.3-2.4
		C0.4,3,0.7,2.4,1.1,1.9S2,1,2.7,0.8s1.5-0.4,2.4-0.4c1,0,1.8,0.1,2.4,0.4c0.7,0.3,1.2,0.7,1.6,1.2C9.5,2.4,9.8,3,10,3.7
		c0.2,0.7,0.3,1.5,0.3,2.4v2.1H6.1V6.1c0-0.2,0-0.4,0-0.6C6.1,5.3,6,5.1,5.9,5C5.9,4.8,5.8,4.7,5.6,4.7C5.5,4.6,5.3,4.5,5.1,4.5
		C4.7,4.6,4.4,4.7,4.3,5C4.1,5.3,4.1,5.7,4.1,6.2v12.2c0,0.2,0,0.5,0,0.7c0,0.2,0.1,0.4,0.1,0.6c0.1,0.2,0.2,0.3,0.3,0.4
		c0.1,0.1,0.3,0.1,0.5,0.1c0.2,0,0.4,0,0.5-0.1c0.1-0.1,0.2-0.2,0.3-0.3c0.1-0.1,0.1-0.3,0.2-0.5c0-0.2,0-0.4,0-0.7v-2.3H10.2z"/>
	<path class="st0" d="M12.3,23.8V0h4v23.8H12.3z"/>
	<path class="st0" d="M28.3,17.6v0.7c0,0.9-0.1,1.7-0.2,2.4c-0.2,0.7-0.4,1.3-0.8,1.8c-0.4,0.5-0.9,0.9-1.5,1.2
		c-0.6,0.3-1.4,0.4-2.4,0.4c-1,0-1.8-0.1-2.4-0.4c-0.6-0.3-1.2-0.6-1.6-1.1c-0.4-0.5-0.7-1.1-0.8-1.8c-0.2-0.7-0.2-1.5-0.2-2.4v-7.4
		c0-0.9,0.1-1.7,0.2-2.4c0.2-0.7,0.4-1.3,0.8-1.8c0.4-0.5,0.9-0.9,1.5-1.1c0.6-0.3,1.4-0.4,2.4-0.4s1.8,0.1,2.4,0.4s1.1,0.7,1.5,1.2
		c0.4,0.5,0.7,1.1,0.8,1.8c0.2,0.7,0.2,1.5,0.2,2.4v4.5l-6,1.4v1.5c0,0.2,0,0.5,0,0.7c0,0.2,0.1,0.4,0.2,0.5
		c0.1,0.1,0.2,0.3,0.3,0.3C23,20,23.1,20,23.4,20s0.4,0,0.5-0.1c0.1-0.1,0.2-0.2,0.3-0.3c0.1-0.1,0.1-0.3,0.1-0.5c0-0.2,0-0.4,0-0.6
		v-0.8H28.3z M23.4,9.3c-0.2,0-0.4,0-0.5,0.1c-0.1,0.1-0.2,0.2-0.3,0.3c-0.1,0.1-0.1,0.3-0.2,0.5c0,0.2,0,0.4,0,0.7v2.4l2.1-0.5
		v-1.9c0-0.2,0-0.4,0-0.6c0-0.2-0.1-0.4-0.2-0.5c-0.1-0.1-0.2-0.3-0.3-0.3C23.8,9.3,23.6,9.3,23.4,9.3z"/>
	<path class="st0" d="M36.3,23.8v-1.6c-0.2,0.6-0.5,1.1-0.8,1.4c-0.3,0.3-0.8,0.5-1.3,0.5c-0.8,0-1.4-0.1-1.9-0.4
		c-0.5-0.3-0.9-0.7-1.2-1.2c-0.3-0.5-0.5-1.1-0.6-1.8c-0.1-0.7-0.2-1.5-0.2-2.4c0-0.9,0.1-1.6,0.2-2.3c0.1-0.6,0.3-1.2,0.6-1.6
		c0.3-0.4,0.7-0.7,1.2-0.9c0.5-0.2,1.1-0.3,1.9-0.3c0.5,0,0.9,0,1.3,0.1c0.4,0.1,0.7,0.1,0.9,0.2v-2.5c0-0.3,0-0.5,0-0.7
		c0-0.2-0.1-0.4-0.1-0.5c-0.1-0.1-0.2-0.2-0.3-0.3c-0.1-0.1-0.3-0.1-0.5-0.1c-0.4,0-0.7,0.1-0.8,0.3c-0.1,0.2-0.2,0.5-0.2,0.9v1.1
		h-4v-1c0-0.9,0.1-1.6,0.2-2.3c0.2-0.7,0.4-1.2,0.8-1.7c0.4-0.5,0.9-0.8,1.5-1.1c0.6-0.2,1.4-0.4,2.4-0.4c1,0,1.8,0.1,2.4,0.4
		c0.6,0.3,1.2,0.6,1.5,1.1s0.7,1.1,0.8,1.8s0.2,1.5,0.2,2.4v12.8H36.3z M35.2,20c0.3,0,0.5-0.1,0.7-0.2c0.2-0.1,0.3-0.3,0.3-0.5
		c0.1-0.2,0.1-0.4,0.1-0.7c0-0.2,0-0.5,0-0.7v-1c-0.2-0.1-0.3-0.2-0.6-0.3c-0.2-0.1-0.4-0.1-0.6-0.1c-0.2,0-0.4,0.1-0.5,0.2
		c-0.1,0.1-0.2,0.2-0.3,0.4s-0.1,0.4-0.1,0.6c0,0.2,0,0.4,0,0.7c0,0.2,0,0.4,0,0.6c0,0.2,0.1,0.4,0.1,0.5c0.1,0.2,0.2,0.3,0.3,0.4
		C34.8,20,34.9,20,35.2,20z"/>
	<path class="st0" d="M48.5,23.8v-13c0-0.2,0-0.5,0-0.6c0-0.2-0.1-0.3-0.1-0.5s-0.2-0.2-0.3-0.3c-0.1-0.1-0.3-0.1-0.5-0.1
		c-0.2,0-0.4,0-0.5,0.1c-0.1,0.1-0.2,0.2-0.3,0.4s-0.1,0.3-0.1,0.6c0,0.2,0,0.5,0,0.7v12.7h-4V5.6h4v1.1c0.2-0.5,0.4-0.8,0.8-1.1
		c0.4-0.2,0.8-0.4,1.3-0.4c0.7,0,1.4,0.1,1.9,0.4c0.5,0.3,0.9,0.7,1.2,1.2C52,7.4,52.2,8,52.3,8.7c0.1,0.7,0.2,1.5,0.2,2.4v12.6
		H48.5z"/>
	<path class="st0" d="M54.6,11c0-0.9,0.1-1.7,0.2-2.4c0.2-0.7,0.4-1.3,0.8-1.8c0.4-0.5,0.9-0.9,1.5-1.1c0.6-0.3,1.4-0.4,2.4-0.4
		c1,0,1.8,0.1,2.4,0.4c0.6,0.3,1.2,0.6,1.5,1.1c0.4,0.5,0.7,1.1,0.8,1.8c0.2,0.7,0.2,1.5,0.2,2.4v7.4c0,0.9-0.1,1.7-0.2,2.4
		c-0.2,0.7-0.4,1.3-0.8,1.8c-0.4,0.5-0.9,0.9-1.5,1.1c-0.6,0.3-1.4,0.4-2.4,0.4s-1.8-0.1-2.4-0.4c-0.6-0.3-1.2-0.6-1.6-1.1
		c-0.4-0.5-0.7-1.1-0.8-1.8c-0.2-0.7-0.2-1.5-0.2-2.4V11z M59.6,9.3c-0.2,0-0.4,0-0.5,0.1c-0.1,0.1-0.2,0.2-0.3,0.3
		c-0.1,0.1-0.1,0.3-0.1,0.5c0,0.2,0,0.4,0,0.7v7.5c0,0.2,0,0.5,0,0.7c0,0.2,0.1,0.4,0.1,0.5c0.1,0.1,0.2,0.2,0.3,0.3
		c0.1,0.1,0.3,0.1,0.5,0.1c0.2,0,0.4,0,0.5-0.1c0.1-0.1,0.2-0.2,0.3-0.3c0.1-0.1,0.1-0.3,0.1-0.5c0-0.2,0-0.4,0-0.7v-7.5
		c0-0.2,0-0.5,0-0.7c0-0.2-0.1-0.4-0.1-0.5c-0.1-0.1-0.2-0.2-0.3-0.3C60,9.3,59.8,9.3,59.6,9.3z"/>
	<path class="st0" d="M66.7,23.8V0h4v23.8H66.7z"/>
</g>
<g>
	<g>
		<path class="st1" d="M19.8,32.9v-5.1h2.4v0.3h-2V30h0.9c0.8,0,1.4,0.5,1.4,1.3v0.3c0,0.8-0.6,1.3-1.4,1.3H19.8z M20.2,30.3v2.3
			h0.9c0.6,0,1-0.4,1-0.9v-0.4c0-0.6-0.4-0.9-1-0.9H20.2z"/>
		<path class="st1" d="M25.9,29.8l-1.8,3.1h-0.3v-3.8h0.4v3.1l1.8-3.1h0.3v3.8h-0.4V29.8z"/>
		<path class="st1" d="M28.8,33c-0.7,0-1.2-0.5-1.2-1.1v-1.7c0-0.7,0.5-1.1,1.2-1.1c0.7,0,1.2,0.5,1.2,1.1v1.7
			C30,32.5,29.5,33,28.8,33z M29.6,30.1c0-0.4-0.3-0.7-0.8-0.7c-0.5,0-0.8,0.3-0.8,0.7v1.8c0,0.4,0.3,0.7,0.8,0.7
			c0.5,0,0.8-0.3,0.8-0.7V30.1z"/>
		<path class="st1" d="M33.3,30.1c0-0.4-0.3-0.7-0.8-0.7c-0.5,0-0.8,0.3-0.8,0.7v1.8c0,0.4,0.3,0.7,0.8,0.7c0.5,0,0.8-0.3,0.8-0.7
			v-0.3h0.4v0.2c0,0.7-0.5,1.1-1.2,1.1c-0.7,0-1.2-0.5-1.2-1.1v-1.7c0-0.7,0.5-1.1,1.2-1.1c0.7,0,1.2,0.5,1.2,1.1v0.2h-0.4V30.1z"/>
		<path class="st1" d="M37,29.4h-1.6v3.5h-0.4v-3.8h2.4v3.8H37V29.4z"/>
		<path class="st1" d="M38.7,29.1h0.4v0.4c0.2-0.3,0.5-0.5,1-0.5c0.6,0,1.1,0.4,1.1,1V32c0,0.6-0.4,1-1.1,1c-0.4,0-0.8-0.2-1-0.5
			v1.9h-0.4V29.1z M40.7,32v-1.9c0-0.4-0.3-0.7-0.8-0.7c-0.5,0-0.8,0.3-0.8,0.7V32c0,0.4,0.4,0.7,0.8,0.7
			C40.4,32.7,40.7,32.4,40.7,32z"/>
		<path class="st1" d="M42.3,30.1c0-0.7,0.5-1.1,1.2-1.1c0.7,0,1.2,0.5,1.2,1.1v1h-2.1v0.7c0,0.4,0.3,0.7,0.8,0.7
			c0.5,0,0.8-0.3,0.8-0.7v-0.2h0.4v0.1c0,0.7-0.5,1.1-1.2,1.1c-0.7,0-1.2-0.5-1.2-1.1V30.1z M42.7,30.1v0.7h1.7v-0.7
			c0-0.4-0.3-0.7-0.8-0.7C43.1,29.4,42.7,29.7,42.7,30.1z"/>
		<path class="st1" d="M48.2,29.8l-1.8,3.1h-0.3v-3.8h0.4v3.1l1.8-3.1h0.3v3.8h-0.4V29.8z M48.2,27.8v0.1c0,0.4-0.3,0.7-0.8,0.7
			c-0.5,0-0.8-0.3-0.8-0.7v-0.1h0.3v0.1c0,0.2,0.2,0.4,0.5,0.4c0.3,0,0.5-0.2,0.5-0.4v-0.1H48.2z"/>
	</g>
</g>
</svg>
