<?xml version="1.0" encoding="utf-8"?>
<!-- Generator: Adobe Illustrator 22.0.0, SVG Export Plug-In . SVG Version: 6.00 Build 0)  -->
<svg version="1.1" id="Layer_1" xmlns="http://www.w3.org/2000/svg" xmlns:xlink="http://www.w3.org/1999/xlink" x="0px" y="0px"
	 viewBox="0 0 42 42" style="enable-background:new 0 0 42 42;" xml:space="preserve">
<style type="text/css">
	.st0{font-family:'ArialMT';}
	.st1{font-size:16px;}

</style>
	<defs>
		<linearGradient id="grad1" x1="0%" y1="0%" x2="100%" y2="0%">
      <stop offset="0%" style="stop-color:#7e3797;stop-opacity:1" />
      <stop offset="100%" style="stop-color:#ed793e;stop-opacity:1" />
    </linearGradient>
	</defs>
<path fill ="url(#grad1)" id="Forma_1" d="M31.9,4c-0.5-2.3-2.5-4-4.9-4c-0.6,0-1,0.4-1,1s0.4,1,1,1c1.7,0,3,1.3,3,3s-1.3,3-3,3c-0.6,0-1,0.4-1,1
	s0.4,1,1,1c2.4,0,4.4-1.7,4.9-4H40v9H2V6h12c0.6,0,1-0.4,1-1s-0.4-1-1-1h-1.8c0.6-1.6,2.3-2.4,3.8-1.8c1.6,0.6,2.4,2.3,1.8,3.8
	c-0.4,1.2-1.6,2-2.8,2c-0.6,0-1,0.4-1,1s0.4,1,1,1c2.8,0,5-2.2,5-5c0-2.8-2.2-5-5-5c-2.4,0-4.4,1.7-4.9,4H0v38h42V4H31.9z M40,40H2
	V17h38V40z M21,2c1.7,0,3,1.3,3,3s-1.3,3-3,3c-0.6,0-1,0.4-1,1s0.4,1,1,1c2.8,0,5-2.2,5-5s-2.2-5-5-5c-0.6,0-1,0.4-1,1S20.4,2,21,2z
	"/>
<text fill ="url(#grad1)" id="_14" transform="matrix(1 0 0 1 11.4631 32.5539)" class="st0 st1">14</text>
</svg>
