<svg id="SVGDoc" width="34" height="32" xmlns="http://www.w3.org/2000/svg" version="1.1" xmlns:xlink="http://www.w3.org/1999/xlink" xmlns:avocode="https://avocode.com/" viewBox="0 0 34 32"><defs><path d="M1282.87506,404.24303v14.75691h-10.625c-1.17096,0 -2.12509,-0.94416 -2.12509,-2.10813v-12.64878zM1301.99997,397.91807v3.16248c0,0.58169 -0.47592,1.05377 -1.06247,1.05377h-13.81256v-4.21626h-4.24988v4.21626h-13.81256c-0.58655,0 -1.06247,-0.47208 -1.06247,-1.05377v-3.16248c0,-1.16165 0.95413,-2.10813 2.12494,-2.10813h6.72348c-0.48233,-0.32651 -0.89676,-0.65129 -1.1879,-0.94242c-1.71051,-1.7097 -1.71051,-4.49232 0.00214,-6.20202c1.66397,-1.66157 4.56665,-1.66157 6.23276,0c0.9201,0.91691 3.3638,4.65064 3.02811,7.14444h0.15289c-0.33783,-2.4938 2.10587,-6.22754 3.02811,-7.14444c1.66397,-1.66157 4.56665,-1.66563 6.23276,0c1.71478,1.7097 1.71478,4.49232 0,6.20202c-0.289,0.29114 -0.70343,0.61591 -1.18576,0.94242h6.72348c1.17294,0 2.12494,0.94648 2.12494,2.10813zM1280.38879,390.15191c-0.43137,-0.43033 -1.00311,-0.66637 -1.60873,-0.66637c-0.60776,0 -1.17935,0.23604 -1.61072,0.66637c-0.89035,0.88965 -0.89035,2.34011 0,3.22976c0.91583,0.91459 3.71872,2.42826 5.18723,2.42826c0.3038,0 0.39307,-0.06959 0.39307,-0.06959c0.49515,-0.50804 -0.92865,-4.15942 -2.36084,-5.58843zM1292.83066,393.38167c0.89249,-0.88965 0.89249,-2.34011 0,-3.22976c-0.86487,-0.86239 -2.36298,-0.85833 -3.21945,0c-1.43219,1.429 -2.85599,5.08039 -2.36084,5.58843c0,0.00232 0.08926,0.06959 0.39108,0.06959c1.47049,0 4.27338,-1.51368 5.18921,-2.42826zM1299.87503,404.24303v12.64878c0,1.16397 -0.952,2.10813 -2.12509,2.10813h-10.625v-14.75691z" id="Path-0"/></defs><desc>Generated with Avocode.</desc><g transform="matrix(1,0,0,1,-1268,-387)"><g><title>Forma 1</title><use xlink:href="#Path-0" fill="#ffffff" fill-opacity="1"/></g></g></svg>